<svg xmlns="http://www.w3.org/2000/svg" xml:space="preserve" viewBox="0 0 508 508"><circle cx="254" cy="254" r="254" style="fill:#324a5e"/><path d="M271.517 263.875h24.399v45.999h-24.399z" style="fill:#2c9984" transform="rotate(137.24 283.72 286.876)"/><path d="m420 418-16.8 15.6c-5.2 4.8-13.6 4.8-18.8-.8L283.6 323.2c-4.8-5.2-4.8-13.6.8-18.8l16.8-15.6c5.2-4.8 13.6-4.8 18.8.8l101.2 109.6c4.4 5.2 4.4 13.6-1.2 18.8z" style="fill:#fff"/><path d="M293.337 336.352h117.597v49.199H293.337z" style="fill:#4cdbc4" transform="rotate(-132.758 352.138 360.957)"/><circle cx="197.2" cy="183.6" r="127.6" style="fill:#fff"/><circle cx="197.2" cy="183.6" r="98.8" style="fill:#84dbff"/><path d="M182.8 281.6c1.2 0 2.4.4 3.6.4-1.2 0-2.4-.4-3.6-.4zm3.6.4c1.2 0 2.4.4 3.6.4-1.2-.4-2.4-.4-3.6-.4zm10.8-77.2zm7.2 77.6c2.4 0 4.8-.4 6.8-.8-4.8.8-9.2 1.2-14 1.2-2.4 0-4.8 0-7.2-.4-8.8-22-13.6-42.4-16-59.2 5.2-16.8 23.2-18.4 23.2-18.4s18 1.6 23.2 18.4c-2.4 16.4-7.2 36.8-16 59.2z" style="fill:#e6e9ee"/><path d="M218.4 178s2.8 15.2-21.2 26.8h-.4c-24-11.6-21.2-26.8-21.2-26.8v-.8c6 7.2 13.2 12 21.2 12s15.2-4.8 21.2-12c.4.4.4.8.4.8z" style="fill:#f9b54c"/><path d="m180.4 182-4 2c-1.2-3.6-.4-6-.4-6v-.8c1.2 2 2.8 3.6 4.4 4.8zm38-4s.4 2.4-.4 6l-4-2c1.6-1.6 3.2-3.2 4.4-4.8v.8z" style="fill:#f9b54c"/><path d="M197.2 204.8zm8.4 2.4-2.8 8.4h-11.2l-2.8-8.4c4.8-2 8.4-2.4 8.4-2.4s3.6.4 8.4 2.4z" style="fill:#f1543f"/><path d="M210 266.8c-1.6 5.2-3.6 10.4-5.6 15.6-2.4 0-4.8.4-7.2.4s-4.8 0-7.2-.4c-2-5.2-4-10.4-5.6-15.6l7.2-51.2h11.2l7.2 51.2z" style="fill:#ff7058"/><path d="M277.2 241.6c-16.8 22.8-42.8 38.4-72.8 40.4 8.8-22 13.6-42.4 16-59.2.4-.4 6-22.8 3.2-36.4l42.4 20.8 11.2 34.4zM190 282.4c-30-2-56-17.6-72.8-40.4l11.2-34.4 42.8-20.4c-3.2 13.6 2.8 35.6 3.2 36.4 2 16 6.8 36.4 15.6 58.8z" style="fill:#324a5e"/><path d="M218.4 178s2.8 15.2-21.2 26.8c0 0 18 1.6 23.2 18.4 0 .4 10-36.4-2-45.2zm-42.8 0s-2.8 15.2 21.2 26.8c0 0-18 1.6-23.2 18.4 0 .4-9.6-36.4 2-45.2z" style="fill:#fff"/><path d="M224.4 160.8c-2.8 8.8-4 13.6-4 14-6.4 8.4-14.4 14.4-23.2 14.4-8.4 0-16-5.2-22-12.8h.4c-13.2-16-4-46-4-46 6.4 7.6 27.6 8 27.6 8-9.2-1.6-10.8-8.8-10.8-8.8 1.6 4.4 22 7.2 22 7.2 21.2 3.2 14 24 14 24z" style="fill:#ffd05b"/><path d="M184.8 99.6s28.8-11.6 43.6 14.8c15.6 28-4 58.4-8 60.8 0 0 1.2-4.8 4-14 0 0 7.2-20.8-14-24 0 0-20.4-2.8-22-7.2 0 0 1.6 7.6 10.8 8.8 0 0-21.2-.4-27.6-8 0 0-9.2 29.6 4 46 0 0-22.8-18.4-20-46.4-.4 0-1.6-38.4 29.2-30.8z" style="fill:#324a5e"/></svg>